<svg width="678" height="122" viewBox="0 0 678 122" fill="none" xmlns="http://www.w3.org/2000/svg">
<g clip-path="url(#clip0_2253_12055)">
<rect width="668.907" height="98.4882" rx="13.1318" transform="matrix(0.999391 -0.0348995 -0.0871557 0.996195 8.58398 23.3447)" fill="#1A1A1A"/>
<path d="M44.6451 84.0881L46.9861 57.3299L48.7058 57.2698L46.3648 84.028L44.6451 84.0881ZM51.6394 65.4412C51.6141 64.4557 51.2198 63.7053 50.4564 63.19C49.6936 62.6679 48.6971 62.4283 47.4667 62.4712C46.5859 62.502 45.8117 62.668 45.1442 62.9692C44.4773 63.2634 43.9446 63.6571 43.546 64.1504C43.155 64.6364 42.933 65.1826 42.8799 65.7888C42.8354 66.2975 42.9159 66.7324 43.1212 67.0934C43.3336 67.4541 43.6245 67.7531 43.9941 67.9903C44.3712 68.2203 44.7796 68.411 45.2194 68.5623C45.6598 68.7067 46.0851 68.8239 46.4954 68.9138L48.545 69.384C49.2155 69.5274 49.8982 69.7293 50.5933 69.9898C51.2883 70.2504 51.923 70.6034 52.4973 71.0488C53.0716 71.4942 53.5174 72.0552 53.8345 72.7319C54.1587 73.4083 54.2787 74.2273 54.1945 75.189C54.0884 76.4014 53.6797 77.489 52.9682 78.4517C52.2637 79.4142 51.2935 80.1879 50.0576 80.7729C48.8286 81.3577 47.3752 81.6794 45.6975 81.738C44.0896 81.7941 42.7207 81.5884 41.5908 81.1207C40.4609 80.653 39.6047 79.9639 39.0223 79.0533C38.4405 78.1358 38.171 77.0337 38.2139 75.747L41.4646 75.6335C41.4598 76.4048 41.6551 77.0406 42.0504 77.5408C42.4533 78.0339 42.9898 78.3938 43.6599 78.6205C44.3376 78.8399 45.0924 78.9352 45.9243 78.9061C46.8401 78.8741 47.667 78.7028 48.4051 78.3922C49.1507 78.0744 49.7523 77.6505 50.2099 77.1204C50.668 76.5834 50.9276 75.9665 50.9886 75.2697C51.044 74.6355 50.9077 74.1228 50.5795 73.7313C50.2584 73.3396 49.8018 73.0221 49.2098 72.7788C48.6248 72.5352 47.9566 72.3258 47.2053 72.1506L44.7281 71.5493C43.0492 71.1425 41.7461 70.5037 40.8187 69.633C39.8983 68.762 39.5033 67.581 39.6338 66.0897C39.7417 64.8564 40.1714 63.768 40.923 62.8248C41.6746 61.8815 42.6459 61.1356 43.8368 60.5868C45.0284 60.0311 46.3442 59.7282 47.7843 59.6779C49.2384 59.6271 50.4989 59.8366 51.5659 60.3065C52.6399 60.7761 53.4594 61.4457 54.0245 62.3152C54.5903 63.1777 54.8368 64.1833 54.7642 65.3321L51.6394 65.4412ZM56.6647 81.0007L56.8695 78.6594L64.7929 70.9008C65.6402 70.0584 66.3423 69.3218 66.8993 68.691C67.4639 68.053 67.8964 67.4509 68.1968 66.8846C68.4972 66.3184 68.6749 65.7217 68.7298 65.0945C68.7919 64.3838 68.6778 63.7764 68.3874 63.2725C68.0976 62.7616 67.6747 62.3769 67.1189 62.1184C66.5637 61.853 65.9225 61.733 65.1955 61.7583C64.4265 61.7852 63.7417 61.9654 63.141 62.299C62.5404 62.6326 62.0613 63.0905 61.7037 63.6726C61.3461 64.2547 61.1338 64.9291 61.0667 65.6956L57.9734 65.8036C58.0874 64.5005 58.4876 63.3507 59.1742 62.3542C59.8607 61.3576 60.7518 60.5728 61.8473 59.9996C62.9435 59.4194 64.1591 59.106 65.4944 59.0594C66.8435 59.0123 68.0085 59.2391 68.9892 59.7398C69.9774 60.2332 70.7215 60.9297 71.2212 61.8293C71.7216 62.7219 71.9215 63.743 71.8209 64.8928C71.7514 65.6872 71.5331 66.4694 71.166 67.2394C70.806 68.0092 70.2181 68.8738 69.4024 69.8332C68.5873 70.7856 67.4682 71.9466 66.0451 73.3163L61.3878 77.918L61.374 78.0748L71.0421 77.7372L70.7998 80.5071L56.6647 81.0007ZM81.2463 80.4341C79.932 80.48 78.7726 80.2704 77.7679 79.8053C76.7708 79.3329 75.9998 78.6652 75.4551 77.8019C74.9104 76.9387 74.6667 75.9399 74.7241 74.8055L77.8699 74.6957C77.8663 75.6128 78.2092 76.3546 78.8983 76.921C79.5875 77.4874 80.4494 77.7526 81.484 77.7164C82.3089 77.6876 83.0559 77.474 83.725 77.0755C84.4017 76.6698 84.951 76.1261 85.3731 75.4444C85.8021 74.7625 86.0541 73.993 86.1291 73.1359C86.2053 72.2649 86.0845 71.4945 85.7668 70.8248C85.449 70.1551 84.9752 69.6367 84.3452 69.2697C83.7222 68.9024 82.9846 68.7302 82.1323 68.753C81.4822 68.7757 80.8188 68.91 80.1422 69.156C79.4656 69.4019 78.9087 69.7131 78.4715 70.0896L75.5424 69.7543L77.692 58.9252L89.4992 58.5129L89.2569 61.2828L80.1446 61.601L78.939 67.6141L79.0648 67.6097C79.5196 67.1909 80.105 66.8335 80.8208 66.5376C81.5436 66.2414 82.3035 66.0794 83.1005 66.0516C84.4077 66.0059 85.5445 66.2754 86.5109 66.8599C87.4843 67.4442 88.2176 68.2626 88.7109 69.3152C89.2119 70.3606 89.3982 71.5768 89.2699 72.9637C89.1555 74.3502 88.7327 75.598 88.0015 76.7073C87.2772 77.8163 86.3284 78.7039 85.155 79.3701C83.9893 80.0291 82.6864 80.3838 81.2463 80.4341ZM95.5024 76.7267L95.2454 77.8715C95.0674 78.7114 94.8129 79.5886 94.482 80.5033C94.1575 81.4247 93.8282 82.2803 93.4943 83.07C93.1674 83.8595 92.8999 84.4871 92.6919 84.9528L90.4689 85.0305C90.5975 84.5953 90.7746 84.0055 91 83.2613C91.2248 82.524 91.4537 81.6997 91.6868 80.7885C91.9198 79.8772 92.1159 78.9499 92.2751 78.0065L92.4824 76.8322L95.5024 76.7267ZM107.821 57.5813C108.778 57.5549 109.707 57.6961 110.607 58.0051C111.507 58.3141 112.297 58.8422 112.977 59.5896C113.664 60.3367 114.174 61.361 114.506 62.6623C114.846 63.9565 114.934 65.579 114.77 67.5299C114.607 69.4044 114.272 71.0799 113.766 72.5564C113.261 74.0259 112.612 75.2748 111.818 76.3028C111.031 77.3307 110.115 78.1234 109.07 78.6809C108.024 79.2384 106.876 79.5391 105.625 79.5828C104.345 79.6274 103.231 79.4162 102.283 78.9492C101.334 78.4821 100.587 77.817 100.042 76.9537C99.4982 76.0835 99.1998 75.0727 99.1472 73.9214L102.345 73.8097C102.475 74.7222 102.836 75.4529 103.429 76.0018C104.03 76.5436 104.844 76.7965 105.872 76.7606C107.444 76.7057 108.731 75.9799 109.731 74.5834C110.732 73.1799 111.344 71.2481 111.566 68.7881L111.398 68.7939C110.982 69.4059 110.483 69.9374 109.9 70.3885C109.324 70.8393 108.69 71.1949 107.998 71.4553C107.306 71.7156 106.579 71.8591 105.817 71.8857C104.58 71.9289 103.481 71.6651 102.52 71.0943C101.56 70.5234 100.825 69.7189 100.317 68.6807C99.808 67.6425 99.6132 66.444 99.7321 65.0852C99.8504 63.7334 100.265 62.4962 100.977 61.3737C101.695 60.251 102.638 59.3497 103.806 58.6698C104.981 57.9827 106.32 57.6199 107.821 57.5813ZM107.594 60.2986C106.776 60.3272 106.021 60.555 105.328 60.9821C104.644 61.402 104.083 61.96 103.645 62.6561C103.209 63.3452 102.954 64.1043 102.882 64.9335C102.809 65.7628 102.925 66.509 103.229 67.1722C103.541 67.8282 103.998 68.3437 104.599 68.7187C105.208 69.0865 105.925 69.256 106.75 69.2272C107.365 69.2057 107.949 69.0672 108.501 68.8117C109.053 68.5563 109.547 68.2125 109.982 67.7805C110.417 67.3415 110.77 66.8498 111.041 66.3055C111.312 65.7611 111.473 65.1928 111.525 64.6005C111.594 63.813 111.469 63.088 111.151 62.4252C110.839 61.7622 110.376 61.2365 109.762 60.8481C109.149 60.4527 108.426 60.2695 107.594 60.2986ZM124.415 78.9266C122.975 78.9769 121.71 78.7744 120.621 78.3192C119.539 77.8638 118.707 77.2085 118.127 76.3535C117.554 75.4912 117.294 74.4791 117.347 73.3171L120.64 73.2021C120.626 73.8347 120.791 74.3778 121.135 74.8312C121.486 75.2775 121.966 75.615 122.573 75.8439C123.18 76.0728 123.868 76.1738 124.637 76.147C125.483 76.1174 126.244 75.945 126.919 75.6296C127.602 75.314 128.152 74.8884 128.568 74.3528C128.985 73.8103 129.223 73.1941 129.284 72.5043C129.346 71.7865 129.216 71.1624 128.893 70.6318C128.578 70.094 128.081 69.6806 127.402 69.3917C126.731 69.1025 125.899 68.9753 124.906 69.01L123.092 69.0733L123.322 66.4393L125.136 66.376C125.933 66.3481 126.645 66.1809 127.271 65.8742C127.904 65.5672 128.414 65.1534 128.802 64.6328C129.189 64.1052 129.413 63.4964 129.474 62.8066C129.531 62.1446 129.431 61.575 129.174 61.0977C128.923 60.6132 128.538 60.2411 128.017 59.9814C127.503 59.7215 126.879 59.6043 126.145 59.6299C125.446 59.6544 124.781 59.8061 124.15 60.0852C123.527 60.357 123.006 60.7365 122.587 61.2235C122.169 61.7035 121.917 62.2716 121.832 62.9276L118.696 63.037C118.832 61.8791 119.264 60.8498 119.991 59.949C120.725 59.0481 121.652 58.3315 122.772 57.7991C123.891 57.2668 125.108 56.9776 126.423 56.9318C127.8 56.8837 128.965 57.1104 129.918 57.6121C130.878 58.1065 131.592 58.7867 132.06 59.6526C132.535 60.5183 132.722 61.4774 132.623 62.5299C132.526 63.7282 132.101 64.7572 131.35 65.6171C130.606 66.4767 129.662 67.0689 128.518 67.3937L128.504 67.5609C129.911 67.7272 130.966 68.253 131.669 69.1385C132.379 70.0238 132.671 71.1425 132.546 72.4945C132.45 73.6719 132.029 74.7391 131.283 75.696C130.545 76.6527 129.582 77.4193 128.396 77.9956C127.21 78.565 125.883 78.8753 124.415 78.9266ZM142.636 78.2903C141.133 78.3428 139.827 78.1313 138.719 77.656C137.618 77.1803 136.782 76.5009 136.211 75.6178C135.64 74.7346 135.408 73.7145 135.517 72.5575C135.589 71.6519 135.847 70.8127 136.291 70.04C136.743 69.2601 137.319 68.6043 138.021 68.0726C138.723 67.534 139.486 67.1809 140.309 67.0132L140.32 66.8878C139.273 66.6673 138.466 66.1258 137.901 65.2633C137.335 64.4008 137.106 63.3945 137.213 62.2445C137.302 61.1507 137.678 60.1651 138.34 59.2875C139.01 58.4026 139.883 57.6948 140.961 57.1639C142.039 56.633 143.239 56.3445 144.56 56.2984C145.867 56.2527 147.013 56.4628 147.997 56.9287C148.988 57.3873 149.743 58.0382 150.261 58.8816C150.781 59.7179 150.996 60.6795 150.908 61.7663C150.801 62.9163 150.383 63.9451 149.655 64.8528C148.928 65.7605 148.032 66.3614 146.968 66.6556L146.957 66.7811C147.749 66.8924 148.443 67.1946 149.041 67.6878C149.647 68.1738 150.109 68.7933 150.426 69.5464C150.751 70.2923 150.877 71.118 150.805 72.0237C150.697 73.1806 150.278 74.2234 149.549 75.152C148.819 76.0806 147.855 76.8228 146.657 77.3788C145.465 77.9344 144.125 78.2383 142.636 78.2903ZM142.867 75.6458C143.755 75.6148 144.537 75.4416 145.213 75.1263C145.889 74.8039 146.429 74.3717 146.831 73.8297C147.235 73.2807 147.472 72.6472 147.541 71.9292C147.6 71.1839 147.461 70.5322 147.127 69.9742C146.799 69.416 146.325 68.9845 145.704 68.6797C145.082 68.3749 144.352 68.2371 143.513 68.2664C142.667 68.296 141.901 68.4859 141.216 68.8364C140.53 69.1869 139.973 69.6544 139.546 70.239C139.118 70.8235 138.875 71.4885 138.817 72.2339C138.747 72.9519 138.864 73.573 139.166 74.0974C139.476 74.6145 139.947 75.0114 140.578 75.2881C141.209 75.5578 141.973 75.6771 142.867 75.6458ZM143.739 65.6847C144.452 65.6598 145.097 65.4948 145.674 65.1898C146.252 64.8849 146.72 64.4725 147.079 63.9529C147.445 63.4329 147.661 62.8314 147.728 62.1483C147.78 61.4796 147.67 60.8998 147.399 60.4091C147.136 59.9181 146.74 59.5464 146.211 59.2939C145.683 59.0345 145.056 58.9175 144.329 58.9428C143.588 58.9687 142.925 59.1308 142.342 59.4291C141.766 59.7201 141.302 60.1219 140.95 60.6343C140.599 61.1468 140.397 61.7374 140.346 62.4061C140.279 63.0892 140.381 63.6796 140.651 64.1773C140.921 64.675 141.32 65.0571 141.847 65.3235C142.381 65.5897 143.012 65.7101 143.739 65.6847ZM154.928 77.7673C154.355 77.7873 153.879 77.6024 153.502 77.2127C153.126 76.8159 152.963 76.3284 153.014 75.75C153.064 75.1786 153.312 74.6836 153.76 74.2651C154.209 73.8395 154.719 73.6168 155.293 73.5967C155.866 73.5767 156.341 73.7651 156.717 74.1618C157.094 74.5516 157.258 75.0321 157.208 75.6035C157.174 75.9868 157.046 76.3421 156.822 76.6695C156.606 76.9897 156.332 77.2493 156.001 77.4484C155.67 77.6476 155.312 77.7538 154.928 77.7673ZM167.276 77.4924C165.62 77.5432 164.243 77.1572 163.144 76.3341C162.045 75.511 161.257 74.2846 160.779 72.6549C160.301 71.0251 160.164 69.0465 160.368 66.7191C160.571 64.3987 161.055 62.4054 161.822 60.7391C162.595 59.0726 163.606 57.7869 164.856 56.8818C166.113 55.9764 167.563 55.4951 169.206 55.4377C170.849 55.3804 172.219 55.7667 173.317 56.5967C174.416 57.4198 175.205 58.6427 175.683 60.2655C176.169 61.8811 176.31 63.8491 176.107 66.1695C175.903 68.5039 175.418 70.5077 174.651 72.1809C173.885 73.8471 172.877 75.1363 171.626 76.0483C170.376 76.9534 168.926 77.4347 167.276 77.4924ZM167.52 74.7016C168.975 74.6508 170.172 73.9038 171.114 72.4607C172.063 71.0173 172.654 68.9577 172.888 66.2819C173.044 64.505 172.986 63.0099 172.716 61.7967C172.453 60.5763 172 59.6612 171.357 59.0515C170.721 58.4346 169.924 58.1428 168.966 58.1763C167.519 58.2268 166.321 58.9772 165.372 60.4276C164.423 61.8779 163.828 63.9376 163.587 66.6067C163.431 68.3906 163.484 69.8928 163.747 71.1132C164.017 72.3265 164.471 73.238 165.107 73.848C165.744 74.451 166.549 74.7355 167.52 74.7016ZM185.747 76.8474C184.09 76.8982 182.713 76.5122 181.614 75.6891C180.515 74.866 179.727 73.6396 179.249 72.0099C178.772 70.3801 178.635 68.4015 178.838 66.0741C179.041 63.7537 179.526 61.7604 180.292 60.0941C181.065 58.4276 182.076 57.1419 183.326 56.2368C184.583 55.3315 186.033 54.8501 187.676 54.7927C189.319 54.7354 190.689 55.1217 191.788 55.9517C192.886 56.7748 193.675 57.9977 194.153 59.6205C194.639 61.2361 194.781 63.2041 194.578 65.5245C194.373 67.8589 193.888 69.8627 193.121 71.5359C192.355 73.2021 191.347 74.4913 190.096 75.4033C188.846 76.3084 187.396 76.7897 185.747 76.8474ZM185.991 74.0566C187.445 74.0058 188.643 73.2588 189.584 71.8157C190.533 70.3723 191.124 68.3127 191.358 65.6369C191.514 63.86 191.457 62.3649 191.186 61.1517C190.924 59.9313 190.471 59.0162 189.827 58.4065C189.191 57.7896 188.394 57.4978 187.437 57.5313C185.989 57.5818 184.791 58.3322 183.842 59.7826C182.893 61.2329 182.298 63.2926 182.057 65.9617C181.901 67.7456 181.955 69.2478 182.217 70.4682C182.487 71.6815 182.941 72.593 183.577 73.203C184.215 73.806 185.019 74.0905 185.991 74.0566Z" fill="white"/>
<path d="M213.641 68.3892L214.178 62.2571L215.222 62.2207L214.685 68.3527L213.641 68.3892ZM211.31 65.9326L211.401 64.892L217.553 64.6772L217.462 65.7178L211.31 65.9326ZM222.042 70.9487L223.082 59.0562L223.847 59.0295L222.806 70.9221L222.042 70.9487ZM225.343 62.5341C225.328 62.0653 225.133 61.7078 224.758 61.4615C224.383 61.2153 223.907 61.1022 223.329 61.1224C222.907 61.1372 222.531 61.2182 222.202 61.3656C221.876 61.5128 221.614 61.7087 221.417 61.9534C221.222 62.1979 221.111 62.472 221.084 62.7755C221.062 63.0294 221.104 63.2456 221.209 63.4241C221.317 63.5994 221.463 63.7441 221.645 63.8582C221.827 63.9691 222.021 64.0596 222.225 64.1297C222.43 64.1966 222.619 64.2502 222.792 64.2905L223.738 64.5168C223.981 64.5732 224.25 64.6533 224.544 64.7573C224.842 64.8611 225.122 65.0073 225.384 65.1957C225.65 65.3809 225.861 65.6237 226.017 65.9239C226.174 66.2241 226.233 66.5972 226.194 67.0431C226.149 67.5572 225.973 68.0265 225.666 68.4509C225.363 68.8753 224.942 69.2188 224.405 69.4815C223.871 69.744 223.237 69.8881 222.504 69.9137C221.821 69.9376 221.238 69.8483 220.757 69.6459C220.28 69.4434 219.915 69.1504 219.663 68.7671C219.415 68.3836 219.295 67.9324 219.303 67.4134L220.496 67.3718C220.496 67.7299 220.591 68.023 220.782 68.251C220.976 68.4758 221.231 68.6398 221.547 68.743C221.867 68.843 222.216 68.8863 222.595 68.8731C223.036 68.8577 223.439 68.7726 223.802 68.6179C224.166 68.4601 224.462 68.2491 224.689 67.9849C224.917 67.7176 225.046 67.4105 225.077 67.0636C225.104 66.7477 225.038 66.4937 224.878 66.3017C224.719 66.1097 224.5 65.9568 224.222 65.843C223.944 65.7292 223.641 65.6317 223.313 65.5505L222.168 65.2571C221.441 65.0694 220.878 64.785 220.477 64.4037C220.077 64.0225 219.905 63.5114 219.961 62.8703C220.008 62.3376 220.193 61.868 220.516 61.4615C220.843 61.0518 221.262 60.7284 221.772 60.4914C222.286 60.2511 222.847 60.1204 223.456 60.0991C224.071 60.0776 224.608 60.1685 225.067 60.3717C225.527 60.5717 225.88 60.8558 226.127 61.2239C226.376 61.5918 226.488 62.0156 226.461 62.4951L225.343 62.5341ZM230.914 69.583C230.299 69.6045 229.759 69.5183 229.296 69.3245C228.836 69.1307 228.481 68.8513 228.231 68.4864C227.985 68.1183 227.871 67.6854 227.89 67.1877L229.064 67.1467C229.062 67.4524 229.144 67.7135 229.311 67.93C229.479 68.1434 229.708 68.3052 229.998 68.4154C230.289 68.5257 230.618 68.5744 230.984 68.5616C231.395 68.5473 231.764 68.4634 232.094 68.3099C232.423 68.1563 232.689 67.9494 232.891 67.6892C233.094 67.4289 233.21 67.1316 233.239 66.7971C233.27 66.4471 233.21 66.142 233.059 65.8818C232.908 65.6184 232.672 65.4167 232.35 65.2766C232.028 65.1366 231.624 65.0751 231.139 65.092L230.375 65.1187L230.464 64.0967L231.229 64.07C231.608 64.0567 231.946 63.977 232.244 63.8307C232.545 63.6844 232.787 63.4845 232.97 63.2311C233.156 62.9776 233.264 62.6836 233.294 62.3491C233.322 62.027 233.275 61.7492 233.153 61.5158C233.031 61.2823 232.845 61.1035 232.596 60.9795C232.349 60.8553 232.051 60.7993 231.7 60.8116C231.37 60.8231 231.054 60.8943 230.752 61.0253C230.453 61.1531 230.201 61.3332 229.998 61.5657C229.795 61.7951 229.672 62.068 229.629 62.3844L228.511 62.4235C228.573 61.9242 228.762 61.4823 229.077 61.0977C229.393 60.71 229.789 60.4028 230.264 60.1763C230.742 59.9496 231.256 59.8267 231.806 59.8075C232.396 59.7869 232.892 59.8884 233.294 60.1122C233.696 60.3328 233.994 60.6327 234.186 61.0119C234.379 61.3911 234.456 61.8052 234.417 62.2543C234.37 62.7901 234.189 63.2518 233.873 63.6395C233.56 64.0271 233.157 64.3021 232.662 64.4645L232.656 64.5388C233.25 64.6169 233.698 64.856 234.001 65.256C234.304 65.653 234.429 66.1535 234.376 66.7574C234.331 67.2746 234.149 67.7441 233.83 68.1659C233.515 68.5844 233.104 68.9199 232.599 69.1722C232.094 69.4245 231.532 69.5614 230.914 69.583ZM237.534 67.9253L237.416 68.4297C237.332 68.7846 237.218 69.1652 237.074 69.5716C236.934 69.9779 236.79 70.3612 236.644 70.7213C236.498 71.0815 236.378 71.3682 236.285 71.5814L235.446 71.6107C235.504 71.4111 235.58 71.1475 235.674 70.8201C235.767 70.4926 235.864 70.1264 235.965 69.7215C236.068 69.3196 236.16 68.9089 236.24 68.4893L236.341 67.967L237.534 67.9253ZM239.546 69.1519L244.551 60.5851L244.558 60.5108L239.636 60.6826L239.726 59.6606L245.84 59.4471L245.746 60.5249L240.757 69.1096L239.546 69.1519ZM250.499 59.1547C250.89 59.1442 251.275 59.2048 251.654 59.3367C252.033 59.4686 252.369 59.6977 252.662 60.024C252.956 60.3472 253.176 60.7949 253.321 61.3672C253.466 61.9395 253.5 62.6624 253.424 63.5357C253.35 64.3812 253.203 65.1351 252.984 65.7973C252.769 66.4563 252.491 67.0156 252.15 67.4752C251.812 67.9346 251.419 68.288 250.97 68.5353C250.524 68.7824 250.032 68.9154 249.495 68.9341C248.96 68.9528 248.493 68.8641 248.092 68.6682C247.694 68.469 247.378 68.1852 247.144 67.8167C246.913 67.445 246.783 67.0096 246.752 66.5105L247.889 66.4708C247.953 66.9039 248.125 67.2576 248.405 67.5318C248.688 67.8029 249.081 67.9297 249.584 67.9121C250.321 67.8864 250.93 67.5456 251.411 66.8896C251.896 66.2336 252.19 65.3202 252.292 64.1495L252.218 64.1521C252.021 64.4184 251.795 64.6501 251.539 64.8474C251.283 65.0447 251.005 65.1995 250.704 65.3119C250.403 65.4243 250.088 65.4862 249.758 65.4977C249.211 65.5168 248.721 65.3996 248.288 65.1461C247.859 64.8894 247.528 64.529 247.296 64.0647C247.067 63.5972 246.98 63.0568 247.033 62.4436C247.084 61.8614 247.261 61.3241 247.565 60.8319C247.871 60.3364 248.275 59.9364 248.775 59.6317C249.279 59.327 249.854 59.168 250.499 59.1547ZM250.41 60.1768C250.018 60.1904 249.657 60.3003 249.326 60.5064C248.999 60.7092 248.729 60.978 248.517 61.3127C248.308 61.6442 248.187 62.0081 248.152 62.4045C248.117 62.801 248.173 63.1587 248.318 63.4778C248.467 63.7937 248.685 64.0424 248.973 64.2238C249.264 64.4019 249.605 64.4842 249.997 64.4705C250.292 64.4602 250.572 64.3933 250.837 64.2698C251.102 64.1432 251.338 63.976 251.545 63.7681C251.756 63.5569 251.926 63.3209 252.058 63.0601C252.189 62.7961 252.267 62.5233 252.292 62.2414C252.324 61.8698 252.265 61.5245 252.113 61.2056C251.964 60.8866 251.742 60.632 251.446 60.4416C251.153 60.2511 250.807 60.1629 250.41 60.1768ZM258.994 58.9878L258.162 68.5018L257.006 68.5422L257.733 60.236L257.677 60.2379L255.212 61.8616L255.314 60.6909L257.838 59.0281L258.994 58.9878ZM261.157 68.4713C260.927 68.4793 260.737 68.4042 260.586 68.2458C260.436 68.0874 260.371 67.8936 260.391 67.6644C260.411 67.4352 260.51 67.2357 260.689 67.0658C260.869 66.8959 261.073 66.807 261.303 66.7989C261.533 66.7909 261.723 66.8661 261.873 67.0245C262.024 67.1829 262.089 67.3766 262.069 67.6058C262.055 67.7576 262.004 67.8983 261.916 68.028C261.83 68.1576 261.72 68.2633 261.586 68.3452C261.455 68.4238 261.312 68.4659 261.157 68.4713ZM266.812 68.3294C266.197 68.3509 265.657 68.2647 265.194 68.071C264.734 67.8771 264.379 67.5977 264.129 67.2328C263.883 66.8648 263.769 66.4318 263.788 65.9341L264.962 65.8931C264.96 66.1988 265.043 66.4599 265.209 66.6764C265.377 66.8898 265.606 67.0516 265.896 67.1619C266.187 67.2721 266.516 67.3208 266.883 67.308C267.293 67.2937 267.662 67.2098 267.992 67.0563C268.321 66.9027 268.587 66.6958 268.789 66.4356C268.992 66.1753 269.108 65.878 269.137 65.5435C269.168 65.1935 269.108 64.8884 268.957 64.6282C268.807 64.3648 268.57 64.1631 268.248 64.0231C267.926 63.883 267.522 63.8215 267.037 63.8384L266.273 63.8651L266.363 62.8431L267.127 62.8164C267.506 62.8031 267.844 62.7234 268.142 62.5771C268.443 62.4308 268.685 62.2309 268.868 61.9775C269.055 61.724 269.162 61.43 269.192 61.0955C269.22 60.7734 269.173 60.4956 269.051 60.2622C268.929 60.0287 268.743 59.8499 268.494 59.7259C268.248 59.6017 267.949 59.5457 267.598 59.558C267.268 59.5695 266.952 59.6407 266.65 59.7717C266.351 59.8995 266.099 60.0796 265.896 60.3121C265.694 60.5415 265.571 60.8144 265.527 61.1309L264.409 61.1699C264.471 60.6706 264.66 60.2287 264.976 59.8441C265.291 59.4564 265.687 59.1493 266.162 58.9227C266.64 58.6961 267.154 58.5731 267.704 58.5539C268.295 58.5333 268.791 58.6349 269.192 58.8586C269.594 59.0792 269.892 59.3791 270.085 59.7583C270.277 60.1375 270.354 60.5517 270.315 61.0007C270.268 61.5365 270.087 61.9982 269.771 62.386C269.458 62.7736 269.055 63.0485 268.561 63.2109L268.554 63.2853C269.148 63.3633 269.596 63.6024 269.899 64.0025C270.202 64.3994 270.327 64.8999 270.274 65.5038C270.229 66.021 270.047 66.4905 269.728 66.9123C269.413 67.3308 269.002 67.6663 268.497 67.9186C267.992 68.1709 267.43 68.3078 266.812 68.3294ZM275.056 68.0415C274.354 68.066 273.773 67.8964 273.312 67.5328C272.851 67.166 272.523 66.6233 272.325 65.9046C272.128 65.1828 272.075 64.3047 272.165 63.2703C272.255 62.2421 272.463 61.3595 272.787 60.6226C273.115 59.8825 273.543 59.3118 274.071 58.9105C274.602 58.506 275.215 58.2916 275.911 58.2673C276.607 58.243 277.185 58.4158 277.645 58.7857C278.109 59.1524 278.439 59.6966 278.636 60.4184C278.837 61.1369 278.892 62.0103 278.802 63.0385C278.711 64.0729 278.504 64.9601 278.179 65.7002C277.854 66.4371 277.428 67.0062 276.9 67.4074C276.373 67.8056 275.758 68.017 275.056 68.0415ZM275.146 67.0195C275.841 66.9952 276.411 66.6418 276.855 65.9594C277.299 65.277 277.575 64.3164 277.683 63.0776C277.755 62.2538 277.728 61.5554 277.602 60.9825C277.479 60.4094 277.265 59.9769 276.963 59.6848C276.663 59.3927 276.283 59.2547 275.823 59.2708C275.134 59.2948 274.565 59.6528 274.117 60.3446C273.67 61.0333 273.392 61.9955 273.284 63.2312C273.212 64.055 273.238 64.7519 273.361 65.3219C273.485 65.8919 273.697 66.3214 273.997 66.6104C274.3 66.8993 274.683 67.0357 275.146 67.0195Z" fill="#6CE9A6"/>
<path d="M284.68 63.5742C284.782 62.4035 285.029 61.322 285.419 60.3296C285.813 59.334 286.33 58.4129 286.971 57.5661L287.94 57.5323C287.69 57.8467 287.447 58.2318 287.212 58.6877C286.98 59.1404 286.768 59.6372 286.575 60.1781C286.383 60.7159 286.219 61.2712 286.086 61.8439C285.955 62.4166 285.865 62.9801 285.817 63.5345C285.752 64.2716 285.758 65.017 285.835 65.7708C285.911 66.5246 286.042 67.2224 286.228 67.8643C286.413 68.5062 286.637 69.0264 286.9 69.4248L285.93 69.4586C285.434 68.6516 285.075 67.7626 284.854 66.7915C284.635 65.8173 284.577 64.7449 284.68 63.5742ZM288.673 67.4362L288.746 66.6L292.198 63.0523C292.603 62.6368 292.938 62.2762 293.203 61.9705C293.468 61.6618 293.67 61.3738 293.808 61.1065C293.95 60.836 294.033 60.5552 294.058 60.2641C294.088 59.9296 294.032 59.6429 293.892 59.4039C293.755 59.1647 293.554 58.9834 293.289 58.8599C293.024 58.7364 292.719 58.6807 292.375 58.6927C292.008 58.7055 291.681 58.7926 291.395 58.9539C291.111 59.112 290.883 59.3283 290.711 59.603C290.541 59.8775 290.44 60.196 290.409 60.5583L289.309 60.5967C289.358 60.0393 289.529 59.5454 289.824 59.1152C290.119 58.685 290.499 58.3445 290.963 58.0936C291.431 57.8426 291.944 57.7074 292.5 57.688C293.059 57.6684 293.544 57.7688 293.955 57.9891C294.367 58.2094 294.678 58.515 294.888 58.906C295.099 59.2969 295.182 59.737 295.14 60.2264C295.109 60.5763 295.015 60.9208 294.859 61.2597C294.705 61.5954 294.456 61.9731 294.109 62.3928C293.766 62.8092 293.296 63.3197 292.697 63.9241L290.354 66.2845L290.347 66.3589L294.784 66.2039L294.695 67.226L288.673 67.4362ZM296.361 65.2226L296.444 64.2749L301.217 57.5132L301.907 57.4891L301.779 58.9571L301.313 58.9734L297.706 64.0826L297.7 64.157L303.348 63.9597L303.259 64.9817L296.361 65.2226ZM300.683 67.0168L300.879 64.7777L300.918 64.3364L301.516 57.5028L302.615 57.4644L301.783 66.9784L300.683 67.0168ZM306.329 62.5403L305.953 66.8328L304.853 66.8712L305.685 57.3572L306.785 57.3188L306.48 60.8122L306.573 60.809C306.773 60.4345 307.05 60.1331 307.405 59.9046C307.763 59.6729 308.223 59.5472 308.785 59.5276C309.273 59.5105 309.692 59.5932 310.041 59.7755C310.391 59.9547 310.649 60.2405 310.816 60.633C310.987 61.0222 311.045 61.5235 310.991 62.1367L310.595 66.6707L309.495 66.7091L309.885 62.2494C309.935 61.6827 309.825 61.2496 309.557 60.9502C309.293 60.6476 308.901 60.5054 308.382 60.5235C308.022 60.5361 307.692 60.6232 307.393 60.785C307.097 60.9466 306.854 61.1758 306.664 61.4727C306.476 61.7695 306.365 62.1253 306.329 62.5403ZM315.307 62.5047C315.204 63.6754 314.956 64.7585 314.563 65.7541C314.172 66.7465 313.657 67.666 313.016 68.5128L312.046 68.5467C312.297 68.2322 312.538 67.8471 312.77 67.3913C313.005 66.9385 313.218 66.4432 313.411 65.9055C313.604 65.3646 313.766 64.8078 313.896 64.2351C314.03 63.6592 314.122 63.0957 314.17 62.5444C314.234 61.8073 314.228 61.0619 314.152 60.3081C314.075 59.5543 313.944 58.8565 313.759 58.2146C313.573 57.5727 313.349 57.0525 313.087 56.6541L314.056 56.6203C314.552 57.4273 314.91 58.3179 315.128 59.2922C315.35 60.2632 315.409 61.334 315.307 62.5047Z" fill="#C9C9C9"/>
<line y1="-0.410368" x2="16.4147" y2="-0.410368" transform="matrix(-0.0871557 0.996195 -0.999391 0.0348995 327.904 52.9492)" stroke="white" stroke-width="0.820735"/>
<path d="M341.771 56.097L340.939 65.6111L339.783 65.6514L340.51 57.3452L340.454 57.3472L337.989 58.9709L338.091 57.8002L340.616 56.1374L341.771 56.097ZM346.73 65.5385C346.09 65.5609 345.534 65.4676 345.063 65.2586C344.595 65.0465 344.242 64.7454 344.004 64.3555C343.766 63.9624 343.671 63.5088 343.719 62.9946C343.751 62.5921 343.863 62.2176 344.054 61.8713C344.246 61.5219 344.491 61.2277 344.791 60.9888C345.094 60.7466 345.422 60.5885 345.776 60.5144L345.78 60.4587C345.334 60.357 344.993 60.1141 344.757 59.7303C344.521 59.3433 344.427 58.8973 344.474 58.3924C344.514 57.9094 344.674 57.4731 344.956 57.0835C345.238 56.6938 345.606 56.3815 346.06 56.1464C346.517 55.9112 347.026 55.7839 347.585 55.7643C348.138 55.745 348.622 55.8377 349.038 56.0424C349.454 56.2471 349.769 56.5356 349.985 56.9078C350.203 57.28 350.293 57.7076 350.253 58.1906C350.206 58.6955 350.028 59.151 349.72 59.5569C349.416 59.9597 349.034 60.2277 348.577 60.361L348.572 60.4168C348.911 60.4667 349.209 60.6029 349.465 60.8256C349.722 61.0451 349.917 61.3239 350.052 61.6619C350.187 61.9968 350.238 62.3655 350.206 62.768C350.158 63.2822 349.978 63.7455 349.666 64.1577C349.358 64.5668 348.95 64.8944 348.442 65.1406C347.937 65.3837 347.367 65.5163 346.73 65.5385ZM346.819 64.5165C347.251 64.5014 347.63 64.4187 347.956 64.2684C348.282 64.1181 348.542 63.913 348.735 63.653C348.928 63.3931 349.041 63.0928 349.074 62.752C349.102 62.3928 349.037 62.0786 348.877 61.8094C348.718 61.5402 348.487 61.3321 348.184 61.1852C347.884 61.0382 347.532 60.9718 347.128 60.9859C346.721 61.0001 346.351 61.0918 346.017 61.2609C345.686 61.4299 345.417 61.6555 345.21 61.9375C345.005 62.2194 344.889 62.54 344.861 62.8991C344.828 63.2399 344.884 63.5343 345.03 63.7824C345.178 64.0304 345.405 64.2185 345.71 64.3468C346.014 64.4751 346.384 64.5317 346.819 64.5165ZM347.214 60.0011C347.556 59.9891 347.865 59.9104 348.141 59.7649C348.42 59.6193 348.646 59.4215 348.82 59.1716C348.994 58.9216 349.097 58.6324 349.128 58.304C349.153 57.982 349.102 57.7044 348.974 57.4711C348.846 57.2348 348.655 57.0562 348.402 56.9353C348.15 56.8114 347.848 56.7555 347.497 56.7678C347.14 56.7803 346.822 56.8577 346.543 57.0002C346.264 57.1397 346.042 57.3327 345.874 57.5794C345.707 57.8229 345.612 58.1057 345.586 58.4277C345.555 58.7561 345.603 59.04 345.73 59.2795C345.861 59.5188 346.054 59.7019 346.309 59.8289C346.565 59.9558 346.866 60.0132 347.214 60.0011ZM352.29 65.2888C352.06 65.2968 351.87 65.2216 351.72 65.0632C351.569 64.9048 351.504 64.7111 351.524 64.4819C351.544 64.2527 351.644 64.0532 351.823 63.8833C352.002 63.7134 352.206 63.6244 352.436 63.6164C352.666 63.6084 352.856 63.6835 353.007 63.8419C353.157 64.0003 353.222 64.1941 353.202 64.4233C353.189 64.575 353.138 64.7158 353.049 64.8455C352.963 64.975 352.853 65.0808 352.719 65.1626C352.588 65.2413 352.445 65.2834 352.29 65.2888ZM355.09 65.1169L355.164 64.2807L358.615 60.733C359.02 60.3175 359.355 59.9569 359.62 59.6512C359.886 59.3424 360.087 59.0544 360.225 58.7872C360.367 58.5167 360.45 58.2359 360.476 57.9448C360.505 57.6103 360.449 57.3236 360.309 57.0845C360.172 56.8454 359.971 56.6641 359.706 56.5406C359.441 56.4171 359.137 56.3613 358.792 56.3734C358.425 56.3862 358.098 56.4732 357.812 56.6345C357.528 56.7926 357.3 57.009 357.128 57.2836C356.958 57.5582 356.858 57.8766 356.826 58.239L355.726 58.2774C355.775 57.7199 355.946 57.2261 356.241 56.7959C356.536 56.3657 356.916 56.0251 357.381 55.7743C357.849 55.5233 358.361 55.388 358.917 55.3686C359.476 55.3491 359.961 55.4495 360.373 55.6698C360.784 55.8901 361.095 56.1957 361.305 56.5866C361.516 56.9776 361.6 57.4177 361.557 57.907C361.526 58.257 361.433 58.6014 361.276 58.9404C361.123 59.2761 360.873 59.6538 360.526 60.0734C360.183 60.4899 359.713 61.0003 359.115 61.6048L356.771 63.9652L356.764 64.0395L361.201 63.8846L361.112 64.9066L355.09 65.1169ZM363.335 64.829L368.34 56.2622L368.347 56.1879L363.425 56.3598L363.515 55.3377L369.629 55.1242L369.535 56.202L364.546 64.7867L363.335 64.829ZM375.555 62.6238L375.599 62.1221C375.63 61.7752 375.729 61.4553 375.897 61.1623C376.069 60.866 376.3 60.6264 376.592 60.4433C376.887 60.257 377.233 60.1569 377.631 60.143C378.035 60.1289 378.366 60.2054 378.624 60.3723C378.882 60.5362 379.068 60.7613 379.183 61.0475C379.297 61.3307 379.339 61.6457 379.309 61.9925L379.265 62.4943C379.235 62.8411 379.135 63.1626 378.967 63.4587C378.802 63.7516 378.574 63.9912 378.282 64.1774C377.993 64.3603 377.65 64.4588 377.252 64.4727C376.848 64.4868 376.516 64.4119 376.254 64.2482C375.993 64.0813 375.804 63.8563 375.686 63.5733C375.569 63.2872 375.525 62.9707 375.555 62.6238ZM376.55 62.0889L376.506 62.5906C376.481 62.8786 376.527 63.1348 376.643 63.3592C376.76 63.5806 376.987 63.6853 377.322 63.6736C377.648 63.6622 377.888 63.5412 378.041 63.3104C378.198 63.0765 378.289 62.8155 378.314 62.5275L378.358 62.0257C378.384 61.7377 378.341 61.4829 378.23 61.2614C378.12 61.0368 377.897 60.9303 377.561 60.9421C377.235 60.9535 376.99 61.0762 376.827 61.3104C376.668 61.5414 376.575 61.8009 376.55 62.0889ZM371.278 57.3453L371.322 56.8435C371.352 56.4967 371.452 56.1767 371.62 55.8837C371.791 55.5875 372.023 55.3478 372.315 55.1648C372.61 54.9785 372.956 54.8784 373.354 54.8645C373.758 54.8504 374.088 54.9268 374.346 55.0938C374.605 55.2577 374.791 55.4827 374.905 55.769C375.02 56.0521 375.062 56.3671 375.032 56.714L374.988 57.2157C374.957 57.5626 374.858 57.8841 374.69 58.1802C374.525 58.4731 374.296 58.7126 374.004 58.8988C373.716 59.0818 373.373 59.1802 372.975 59.1941C372.571 59.2082 372.238 59.1334 371.977 58.9696C371.716 58.8027 371.527 58.5778 371.409 58.2947C371.291 58.0086 371.248 57.6921 371.278 57.3453ZM372.273 56.8103L372.229 57.3121C372.204 57.6001 372.249 57.8563 372.366 58.0807C372.483 58.302 372.709 58.4068 373.045 58.3951C373.371 58.3837 373.611 58.2626 373.764 58.0319C373.921 57.7979 374.012 57.5369 374.037 57.2489L374.081 56.7472C374.106 56.4592 374.063 56.2044 373.953 55.9829C373.842 55.7582 373.619 55.6518 373.284 55.6635C372.958 55.6749 372.713 55.7977 372.55 56.0319C372.39 56.2628 372.298 56.5223 372.273 56.8103ZM371 64.5613L378.394 54.8181L379.457 54.781L372.063 64.5242L371 64.5613ZM393.457 54.2921L392.624 63.8062L391.506 63.8452L386.958 56.5569L386.865 56.5601L386.212 64.0301L385.056 64.0705L385.888 54.5564L387.007 54.5174L391.571 61.8237L391.664 61.8204L392.32 54.3319L393.457 54.2921ZM397.776 63.7745C397.086 63.7986 396.505 63.6676 396.031 63.3815C395.561 63.0923 395.215 62.6783 394.992 62.1396C394.773 61.5976 394.696 60.9612 394.76 60.2303C394.824 59.4994 395.014 58.8506 395.329 58.2838C395.649 57.7138 396.063 57.264 396.572 56.9344C397.084 56.6015 397.664 56.4239 398.31 56.4013C398.683 56.3883 399.045 56.4373 399.398 56.5485C399.751 56.6597 400.064 56.8495 400.338 57.1178C400.612 57.383 400.818 57.7402 400.955 58.1892C401.092 58.6383 401.132 59.1958 401.074 59.8616L401.033 60.3262L395.515 60.5189L395.598 59.5712L399.997 59.4176C400.033 59.0149 399.983 58.6585 399.849 58.3483C399.718 58.0379 399.513 57.7965 399.234 57.6241C398.958 57.4516 398.621 57.3722 398.224 57.3861C397.786 57.4014 397.397 57.5231 397.058 57.751C396.722 57.9758 396.454 58.263 396.253 58.6128C396.052 58.9625 395.935 59.334 395.9 59.7274L395.845 60.3592C395.798 60.898 395.851 61.3516 396.005 61.7198C396.162 62.0848 396.399 62.3591 396.718 62.5424C397.037 62.7227 397.418 62.8051 397.862 62.7896C398.151 62.7795 398.416 62.7302 398.656 62.6415C398.899 62.5496 399.114 62.4186 399.299 62.2485C399.484 62.0753 399.635 61.8632 399.75 61.6122L400.786 61.8724C400.643 62.2356 400.427 62.558 400.139 62.8398C399.852 63.1184 399.507 63.3404 399.105 63.5058C398.704 63.668 398.261 63.7575 397.776 63.7745ZM406.164 56.2196L406.083 57.1487L402.373 57.2783L402.454 56.3492L406.164 56.2196ZM403.685 54.6019L404.785 54.5635L404.19 61.3645C404.163 61.6742 404.187 61.9049 404.264 62.0566C404.344 62.2051 404.453 62.3032 404.591 62.3509C404.733 62.3953 404.885 62.4147 405.046 62.4091C405.167 62.4048 405.267 62.3952 405.346 62.3801C405.425 62.3619 405.488 62.3473 405.536 62.3364L405.673 63.3134C405.596 63.3439 405.49 63.3754 405.354 63.408C405.217 63.4436 405.047 63.465 404.842 63.4722C404.531 63.483 404.232 63.4271 403.946 63.3043C403.662 63.1814 403.434 62.9872 403.263 62.7215C403.094 62.4556 403.028 62.1152 403.064 61.7002L403.685 54.6019ZM411.426 63.1496L410.214 63.1919L414.551 53.5555L415.744 53.5139L418.416 62.9055L417.205 62.9478L415.053 55.0385L414.979 55.0411L411.426 63.1496ZM412.198 59.4176L417.082 59.247L416.993 60.269L412.109 60.4396L412.198 59.4176ZM419.903 62.8536L420.735 53.3396L423.96 53.2269C424.709 53.2008 425.309 53.3141 425.761 53.567C426.216 53.8166 426.539 54.165 426.729 54.6123C426.919 55.0595 426.99 55.5634 426.941 56.124C426.892 56.6845 426.732 57.198 426.462 57.6644C426.195 58.1307 425.812 58.5084 425.313 58.7975C424.814 59.0835 424.193 59.2395 423.451 59.2655L421.139 59.3462L421.228 58.3242L423.503 58.2447C424.015 58.2268 424.435 58.1242 424.761 57.9368C425.087 57.7494 425.333 57.5031 425.499 57.1978C425.669 56.8893 425.77 56.5446 425.803 56.1637C425.837 55.7827 425.795 55.4446 425.679 55.1491C425.565 54.8536 425.359 54.6262 425.06 54.4668C424.761 54.3043 424.352 54.2321 423.834 54.2503L421.802 54.3212L421.059 62.8132L419.903 62.8536ZM428.246 53.0773L429.569 53.0311L431.828 57.3797L431.94 57.3758L434.975 52.8423L436.299 52.7961L432.361 58.5097L432.018 62.4305L430.862 62.4709L431.205 58.5501L428.246 53.0773Z" fill="#C9C9C9"/>
<path d="M534.289 66.5285L547.897 55.8644L551.712 58.9916L562.163 51.6982L571.112 61.5746L591.789 49.558L601.221 49.2286L608.975 44.7224L617.333 47.3264L620.347 45.5909L622.357 49.5961L634.086 42.7801L650.908 46.7792L672.559 37.6539L667.48 95.7044L531.321 100.459L534.289 66.5285Z" fill="url(#paint0_linear_2253_12055)"/>
<path d="M534.289 66.5285L547.897 55.8644L551.712 58.9916L562.163 51.6982L571.112 61.5746L591.789 49.558L601.221 49.2286L608.975 44.7224L617.333 47.3264L620.347 45.5909L622.357 49.5961L634.086 42.7801L650.908 46.7792L672.559 37.6539" stroke="#A6F4C5" stroke-width="0.820735"/>
</g>
<rect x="0.374352" y="0.394484" width="668.086" height="97.6675" rx="12.7214" transform="matrix(0.999391 -0.0348995 -0.0871557 0.996195 8.61859 23.3593)" stroke="url(#paint1_linear_2253_12055)" stroke-width="0.820735"/>
<defs>
<linearGradient id="paint0_linear_2253_12055" x1="604.479" y1="40.0313" x2="605.844" y2="79.1091" gradientUnits="userSpaceOnUse">
<stop stop-color="#2C2C2C"/>
<stop offset="1" stop-color="#1A1A1A"/>
</linearGradient>
<linearGradient id="paint1_linear_2253_12055" x1="200.647" y1="-5.50877" x2="164.024" y2="81.7091" gradientUnits="userSpaceOnUse">
<stop stop-color="#9498F1" stop-opacity="0"/>
<stop offset="0.513713" stop-color="#CDD0FF"/>
<stop offset="1" stop-color="#9498F1" stop-opacity="0"/>
</linearGradient>
<clipPath id="clip0_2253_12055">
<rect width="668.907" height="98.4882" rx="13.1318" transform="matrix(0.999391 -0.0348995 -0.0871557 0.996195 8.58398 23.3447)" fill="white"/>
</clipPath>
</defs>
</svg>
